<svg width="33" height="32" viewBox="0 0 33 32" fill="none" xmlns="http://www.w3.org/2000/svg">
<path d="M9.16667 8.66667H9.18M23.8333 8.66667H23.8467M9.16667 23.3333H9.18M17.8333 17.3333H17.8467M23.8333 23.3333H23.8467M23.1667 28H28.5V22.6667M19.1667 22V28M28.5 18.6667H22.5M21.3 13.3333H26.3667C27.1134 13.3333 27.4868 13.3333 27.772 13.188C28.0229 13.0602 28.2268 12.8562 28.3547 12.6053C28.5 12.3201 28.5 11.9467 28.5 11.2V6.13333C28.5 5.3866 28.5 5.01323 28.3547 4.72801C28.2268 4.47713 28.0229 4.27316 27.772 4.14532C27.4868 4 27.1134 4 26.3667 4H21.3C20.5533 4 20.1799 4 19.8947 4.14532C19.6438 4.27316 19.4398 4.47713 19.312 4.72801C19.1667 5.01323 19.1667 5.3866 19.1667 6.13333V11.2C19.1667 11.9467 19.1667 12.3201 19.312 12.6053C19.4398 12.8562 19.6438 13.0602 19.8947 13.188C20.1799 13.3333 20.5533 13.3333 21.3 13.3333ZM6.63333 13.3333H11.7C12.4467 13.3333 12.8201 13.3333 13.1053 13.188C13.3562 13.0602 13.5602 12.8562 13.688 12.6053C13.8333 12.3201 13.8333 11.9467 13.8333 11.2V6.13333C13.8333 5.3866 13.8333 5.01323 13.688 4.72801C13.5602 4.47713 13.3562 4.27316 13.1053 4.14532C12.8201 4 12.4467 4 11.7 4H6.63333C5.8866 4 5.51323 4 5.22801 4.14532C4.97713 4.27316 4.77316 4.47713 4.64532 4.72801C4.5 5.01323 4.5 5.3866 4.5 6.13333V11.2C4.5 11.9467 4.5 12.3201 4.64532 12.6053C4.77316 12.8562 4.97713 13.0602 5.22801 13.188C5.51323 13.3333 5.8866 13.3333 6.63333 13.3333ZM6.63333 28H11.7C12.4467 28 12.8201 28 13.1053 27.8547C13.3562 27.7268 13.5602 27.5229 13.688 27.272C13.8333 26.9868 13.8333 26.6134 13.8333 25.8667V20.8C13.8333 20.0533 13.8333 19.6799 13.688 19.3947C13.5602 19.1438 13.3562 18.9398 13.1053 18.812C12.8201 18.6667 12.4467 18.6667 11.7 18.6667H6.63333C5.8866 18.6667 5.51323 18.6667 5.22801 18.812C4.97713 18.9398 4.77316 19.1438 4.64532 19.3947C4.5 19.6799 4.5 20.0533 4.5 20.8V25.8667C4.5 26.6134 4.5 26.9868 4.64532 27.272C4.77316 27.5229 4.97713 27.7268 5.22801 27.8547C5.51323 28 5.8866 28 6.63333 28Z" stroke="#32D583" stroke-width="2.672" stroke-linecap="round" stroke-linejoin="round"/>
</svg>
