<svg width="33" height="32" viewBox="0 0 33 32" fill="none" xmlns="http://www.w3.org/2000/svg">
<path d="M11.1667 4H10.9C8.65979 4 7.53969 4 6.68404 4.43597C5.93139 4.81947 5.31947 5.43139 4.93597 6.18404C4.5 7.03969 4.5 8.15979 4.5 10.4V10.6667M11.1667 28H10.9C8.65979 28 7.53969 28 6.68404 27.564C5.93139 27.1805 5.31947 26.5686 4.93597 25.816C4.5 24.9603 4.5 23.8402 4.5 21.6V21.3333M28.5 10.6667V10.4C28.5 8.15979 28.5 7.03969 28.064 6.18404C27.6805 5.43139 27.0686 4.81947 26.316 4.43597C25.4603 4 24.3402 4 22.1 4H21.8333M28.5 21.3333V21.6C28.5 23.8402 28.5 24.9603 28.064 25.816C27.6805 26.5686 27.0686 27.1805 26.316 27.564C25.4603 28 24.3402 28 22.1 28H21.8333M4.5 16H4.51333M10.5 16H10.5133M22.5 16H22.5133M16.5 16H16.5133M28.5 16H28.5133" stroke="#32D583" stroke-width="2.672" stroke-linecap="round" stroke-linejoin="round"/>
</svg>
