<svg width="27" height="24" viewBox="0 0 27 24" fill="none" xmlns="http://www.w3.org/2000/svg">
<path d="M14.0715 0.908936C16.5588 0.908936 18.7411 1.38936 20.6174 2.34937C22.4935 3.30927 23.955 4.64002 25.0022 6.34155C26.0495 8.04337 26.5735 10.0513 26.5735 12.364C26.5734 14.6548 26.0494 16.6619 25.0022 18.3855C23.9549 20.0872 22.4937 21.4187 20.6174 22.3787C18.7411 23.3387 16.5588 23.8181 14.0715 23.8181H4.05688V17.0515H0.611572V13.7781H4.05688V10.949H0.611572V7.67651H4.05688V0.908936H14.0715ZM8.31177 7.67651H15.6985V10.949H8.31177V13.7781H15.6985V17.0515H8.31177V20.2185H13.8752C15.5989 20.2185 17.0828 19.8906 18.3264 19.2361C19.5918 18.5815 20.5632 17.6652 21.2395 16.4871C21.9375 15.309 22.2863 13.9346 22.2864 12.364C22.2864 10.7714 21.9376 9.39632 21.2395 8.23999C20.5632 7.06184 19.5918 6.14551 18.3264 5.49097C17.0828 4.83642 15.5989 4.50952 13.8752 4.50952H8.31177V7.67651Z" fill="white"/>
</svg>
